<?xml version="1.0" encoding="utf-8"?>
<!-- Generator: Adobe Illustrator 21.0.0, SVG Export Plug-In . SVG Version: 6.00 Build 0)  -->
<svg version="1.1" xmlns="http://www.w3.org/2000/svg" xmlns:xlink="http://www.w3.org/1999/xlink" x="0px" y="0px"
	 viewBox="0 0 288 288" style="enable-background:new 0 0 288 288;" xml:space="preserve">
<style type="text/css">
	.st0{fill:#FFFFFF;}
	.st1{stroke:#FFFFFF;stroke-miterlimit:10;}
</style>
<g id="Layer_2">
	<g>
		<g>
			<path class="st0" d="M293.4,146.4c-18.4,6.2-35.8,16.2-53.2,24.7c0.7,0.7,1.4,1.4,2.1,2.1c5.7-8.4,10-17.5,12.9-27.2
				c0.3-1.1-0.8-2.2-1.8-1.8c-20.1,6.4-40.1,12.9-59.1,22.1c-1.6,0.8-0.5,3.2,1.2,2.7c19.7-5.1,38.5-12.9,56-23.3
				c1.2-0.7,0.8-2.9-0.8-2.8c-4.8,0.3-9.6,0.6-14.4,0.8c-1.9,0.1-1.9,3.1,0,3c4.8-0.3,9.6-0.6,14.4-0.8c-0.3-0.9-0.5-1.9-0.8-2.8
				c-17.3,10.3-35.8,18-55.3,23c0.4,0.9,0.8,1.8,1.2,2.7c18.7-9.1,38.6-15.5,58.4-21.8c-0.6-0.6-1.2-1.2-1.8-1.8
				c-2.9,9.5-7.1,18.3-12.6,26.5c-0.9,1.3,0.8,2.6,2.1,2.1c17.2-8.3,34.4-18.2,52.5-24.4C296,148.6,295.2,145.7,293.4,146.4
				L293.4,146.4z"/>
		</g>
	</g>
	<g>
		<g>
			<path class="st0" d="M47.9,70.3c-10.6,20-18.8,41.1-24.3,63c-0.4,1.6,2.1,2.8,2.7,1.2c6.9-16.2,9.4-33.5,8.2-51
				c-0.1-1.9-3.1-1.9-3,0c1.2,16.9-1.1,33.8-7.8,49.4c0.9,0.4,1.8,0.8,2.7,1.2c5.5-21.7,13.5-42.6,24-62.3
				C51.4,70.1,48.8,68.6,47.9,70.3L47.9,70.3z"/>
		</g>
	</g>
	<g>
		<g>
			<path class="st0" d="M58.6,71.8c0.1,11.4-5.3,22.2-8.5,33c-3.2,10.7-5.7,21.6-7.6,32.5c-0.3,1.5,1.3,2.5,2.5,1.5
				c13.1-11.5,19.1-28.2,22.7-44.8c1.9-8.8,3.8-18.1,3.6-27.2c-0.1-6.2-1.4-18.1-8.5-20.5c-6.5-2.2-14.2,5.1-18.9,8.7
				C37.2,60,31.1,65.8,26,72.6c-7.4,9.9-18.3,31.6-6,41.9c6.7,5.6,18,6.1,26.4,5.4c10.1-0.8,19.7-4.3,28.1-10
				c1.6-1.1,0.1-3.7-1.5-2.6c-12.7,8.6-28.9,12.2-43.9,8.2c-18.9-5-9.9-27.8-2.2-39c3.9-5.8,8.8-10.8,14.1-15.4
				c2.8-2.4,5.8-4.7,8.8-6.8c2.8-2,7.2-5.8,10.8-5.5c4.7,0.4,6.4,7.9,7.1,11.7c0.8,4.3,0.7,8.6,0.4,12.9c-0.6,7.3-2.1,14.7-3.8,21.9
				c-3.5,15.4-9.3,30.6-21.4,41.2c0.8,0.5,1.7,1,2.5,1.5c2.1-11.6,4.7-23.1,8.2-34.4c3.2-10.5,8.2-20.8,8.1-31.9
				C61.6,69.8,58.6,69.8,58.6,71.8L58.6,71.8z"/>
		</g>
	</g>
	<g>
		<g>
			<path class="st0" d="M60.8,103.6c-5.3,6.7-11.9,19.4-6.7,27.9c5,8.2,20,7.7,28.2,7.4c24.9-0.8,48.3-11.9,68.2-26.1
				c1.6-1.1,0.1-3.7-1.5-2.6c-16.1,11.4-34,20.7-53.6,24.3c-9.8,1.8-20.4,2.2-30.2,0.1c-6.8-1.5-10.5-5.5-9.4-12.8
				c0.9-5.9,3.6-11.4,7.2-16.1C64.1,104.2,62,102,60.8,103.6L60.8,103.6z"/>
		</g>
	</g>
	<g>
		<g>
			<path class="st0" d="M145.1,81.7c-33.3,6.8-66.7,14.5-97.7,28.6c-13,5.9-25.3,13.5-32.3,26.3c-7.6,13.8-10.9,29.9-10.8,45.6
				c0,1.4,1.6,1.9,2.6,1.1c2-1.7,4.1-3.5,6.1-5.2c1.5-1.3-0.7-3.4-2.1-2.1c-2,1.7-4.1,3.5-6.1,5.2c0.9,0.4,1.7,0.7,2.6,1.1
				c-0.1-15.6,3.2-32,11.2-45.5c8-13.4,22.3-20.3,36.1-26.2c29.2-12.4,60.3-19.5,91.3-25.8C147.8,84.2,147,81.3,145.1,81.7
				L145.1,81.7z"/>
		</g>
	</g>
	<g>
		<g>
			<path class="st0" d="M43.1,151.9c1.9,3.6,5.2,11.8-1.5,12.8c-1.9,0.3-1.1,3.2,0.8,2.9c3.1-0.5,5.3-3,6-6c0.9-3.9-1-7.8-2.8-11.2
				C44.8,148.7,42.2,150.2,43.1,151.9L43.1,151.9z"/>
		</g>
	</g>
	<rect x="-8.6" y="-12.1" class="st1" width="314.9" height="300.1"/>
</g>
<g id="Layer_3">
	<g>
		<g>
			<path class="st0" d="M70.6,58c-12.5-10.9-24.8,9-29.7,18.1c-8.4,15.5-12.6,33.4-10.5,51c1.8,15.8,8.6,31.2,19.7,42.6
				c10.6,11,25.9,17.7,38.7,6.1c12.6-11.5,19.9-30,22.6-46.4c2.7-16.5,1.8-35.8-7.3-50.4c-7.6-12.1-21-20.6-35.2-21.9
				c-6.2-0.6-13.3,0.7-16.5,6.6C49.1,69.6,50,77.5,52,83.5c5.2,15.2,20.9,20.4,34.4,12c16.4-10.1,17.8-30.8,18.6-48.2
				c-0.5,0.1-0.9,0.3-1.4,0.4c10.1,21.3,14.6,45.5,20.7,68.2c6.2,23.2,12.4,46.3,18.7,69.5c0.5-0.2,0.9-0.4,1.4-0.6
				c-15.6-21.4-40.7-34.1-64.4-44.6c-12.5-5.6-25.5-10.2-39-12.7c-11.5-2.1-25.5-4.2-35.8,2.7c-0.7,0.4-0.4,1.3,0.4,1.4
				c16.1,1.7,31.8-1.5,47.4-5.2c16.3-3.9,32.5-7.7,49-10.8c33.2-6.2,66.8-10.1,100.5-11.7c19-0.9,38-1.1,57-0.5c1,0,1-1.5,0-1.5
				c-66.1-1.8-132.3,5-196.6,20.6c-18.8,4.5-37.7,9.8-57.3,7.7c0.1,0.5,0.3,0.9,0.4,1.4c11-7.3,26.9-4.3,39-1.6
				c13,2.9,25.5,7.6,37.6,13.2c22.3,10.2,45.8,22.3,60.6,42.6c0.5,0.7,1.6,0.3,1.4-0.6c-6.4-23.8-12.8-47.6-19.2-71.4
				c-6-22.2-10.4-45.8-20.4-66.6c-0.3-0.7-1.4-0.3-1.4,0.4c-0.6,14.4-1.3,31.3-12,42.2c-9.9,10.1-27,12.8-35.4-0.7
				c-3.6-5.7-5.4-13.7-4-20.4c2.1-9.7,11.7-10.8,20-9.3c12.7,2.3,24.2,10.3,30.9,21.3c7.9,13,9.1,29.8,7.3,44.7
				c-1.7,14.2-6.8,28.1-14.8,40c-3.7,5.5-8.1,11.1-14.2,14c-9,4.3-18.7-0.1-25.7-6c-10.4-8.6-17.7-20.9-21.4-33.7
				c-4.4-15.3-3.7-31.7,1.2-46.9c3.2-9.9,18.8-46.8,34-33.3C70.3,59.7,71.3,58.7,70.6,58L70.6,58z"/>
		</g>
	</g>
	<g>
		<g>
			<path class="st0" d="M120.4,88.9c6.3,2,18.2,5.3,24,0.7c2.4-1.9,2.7-4.9,2.9-7.7c0.4-5.3,0-10.6-0.9-15.8c-0.2-1-1.6-0.5-1.4,0.4
				c1,6.4,3.7,21-4.7,23.2c-6.1,1.6-13.7-0.3-19.5-2.2C119.9,87.2,119.5,88.6,120.4,88.9L120.4,88.9z"/>
		</g>
	</g>
	<g>
		<g>
			<path class="st0" d="M133.3,11.7c2.2,57.3,11.2,115.4,38.1,166.8c0.4,0.9,1.7,0.1,1.3-0.8c-26.8-51.1-35.7-109-37.9-166
				C134.8,10.8,133.3,10.8,133.3,11.7L133.3,11.7z"/>
		</g>
	</g>
	<g>
		<g>
			<path class="st0" d="M161.6,68c-2.6,7.7-4,15.8-3.7,24c0.1,4.4,0.4,10.9,5,13.2c4.3,2.1,8.7-1.2,10.9-4.7
				c3.4-5.5,4.8-12.6,4.7-19c-0.1-5.5-1-12.9-5.2-16.9c-2.7-2.6-6.5-2.6-9,0.3c-4.2,4.9-3.1,21.7,6.2,15.9c3-1.9,5-5.4,7.2-8.1
				c1.6-2.1,3.2-4.1,4.8-6.2c1.6-2.1,3.8-5.2,4.8-0.8c1.1,4.8-0.1,10.8-0.8,15.6c-0.8,5.2-2.2,10.3-4,15.3c0.5,0.1,1,0.1,1.5,0.2
				c1.5-12.8,6.3-24.6,14-34.9c-0.5-0.1-0.9-0.1-1.4-0.2c1.2,7.5-1.3,14.5-2.6,21.7c-0.8,4.2-1.8,9.9,0.6,13.8
				c4.9,8.3,14.1,0.2,17.2-5c6-10.2,8.1-22,9.6-33.5c1.8-13.7,3.7-27.6,1.5-41.4c-0.1-0.8-1.2-0.6-1.4,0
				c-9.3,26.3-11.8,54.3-7.4,81.8c0.2,1,1.6,0.5,1.4-0.4c-4.4-27.2-1.8-55,7.4-81c-0.5,0-1,0-1.4,0c1.8,11,0.8,22.1-0.6,33.1
				c-1.2,10.1-2.4,20.4-5.7,30.1c-1.6,4.8-3.7,9.7-6.9,13.7c-1.2,1.5-1.9,2.3-3.6,3.2c-2.8,1.6-3.6,1.6-6.5,0
				c-3-1.7-3.4-3.5-3.5-6.8c0-1.1,0-2.2,0.1-3.3c0.8-9,4.6-17.3,3.1-26.4c-0.1-0.7-1-0.6-1.4-0.2c-7.9,10.5-12.7,22.6-14.2,35.6
				c-0.1,0.9,1.2,0.9,1.5,0.2c2.5-7.1,4.2-14.4,4.8-22c0.4-4.7,1.3-10.7-2.7-14.2c-0.3-0.2-0.8-0.3-1.1,0c-3.2,4.1-6.4,8.3-9.6,12.4
				c-1.1,1.4-2.1,2.9-3.3,4.2c-0.8,1-1.8,1.9-2.9,2.6c-4-0.1-6-1.7-5.9-4.9c-0.5-5.2,3.1-16,10.1-7.9c2.9,3.4,3.5,10.2,3.5,14.4
				c0.1,4.8-0.7,9.7-2.5,14.2c-0.8,2.1-2,4.7-3.7,6.3c-4.3,4.2-9.7,1.4-10.9-3.8c-2.2-9.6,0-20.7,3.1-29.8
				C163.3,67.5,161.9,67.1,161.6,68L161.6,68z"/>
		</g>
	</g>
	<g>
		<g>
			<path class="st0" d="M234.8,66.8c-5.9,4.3-10.5,10-13.3,16.8c-1.4,3.5-4.6,11.2-0.5,14.1c11.1,7.8,14.9-26,15.5-30.9
				c-0.5,0-1,0-1.5,0c-0.4,6.1-1.3,36.4,13.1,26.6c5.6-3.8,7.8-11.8,8.8-18c1.1-6.7,1.5-14.3-0.7-20.8c-4.7-13.7-21.6-15.4-34-15.1
				c-8.2,0.2-16.4,1.7-24.1,4.5c-5,1.8-11.7,4.1-12.1,10.3c-0.1,1,1.4,1,1.5,0c0.4-6.5,11-9,16-10.4c5.8-1.7,11.8-2.6,17.9-2.8
				c10.2-0.4,25.6,0.3,31.6,10.1c5.4,8.8,3.8,23,0.3,32.2c-1.1,2.9-4.4,9.9-8.4,10c-2.6,0.1-6-1.9-6.8-4.3c-0.4-1-0.6-2.1-0.8-3.1
				c-1.2-6.3-1.2-12.8-0.8-19.1c0.1-1-1.4-0.9-1.5,0c-0.6,5.1-1.2,10.3-2.5,15.4c-0.5,2.3-1.2,4.5-2,6.7c-0.5,1.5-1.2,3-1.9,4.4
				c-1.6,3.8-4.2,3.6-8-0.5c-0.7-4.1,2.9-10.5,4.9-13.8c2.6-4.3,6-7.8,10-10.8C236.3,67.6,235.5,66.3,234.8,66.8L234.8,66.8z"/>
		</g>
	</g>
	<g>
		<g>
			<path class="st0" d="M-76.5,23.5c1.9,0,1.9-3,0-3C-78.4,20.5-78.4,23.5-76.5,23.5L-76.5,23.5z"/>
		</g>
	</g>
</g>
</svg>
